<svg id="Layer_1" data-name="Layer 1" xmlns="http://www.w3.org/2000/svg" viewBox="0 0 261.73 221.45"><defs><style>.cls-1,.cls-2{fill:#38c964;stroke:#38c964;stroke-miterlimit:10;}.cls-1{stroke-width:10px;}.cls-2{stroke-width:20px;}</style></defs><path class="cls-1" d="M300.05,105.23C272.43,90.47,236,95,213.13,115.55c-23-20.58-59.48-25-87-10.32-24,12.72-38.91,37.07-38.91,63.51a67.74,67.74,0,0,0,3.48,21.58C102.44,241.13,177.8,308,213.13,308s110.55-66.87,122.09-116.82A70.13,70.13,0,0,0,339,168.74C339,142.3,324,117.94,300.05,105.23Zm18,81.09C307.15,233.61,236,290.17,213.13,290.17c-25.44,0-94.75-59.25-105.28-104.71a51.31,51.31,0,0,1-2.79-16.71c0-19.82,11.27-38.15,29.41-47.77a59,59,0,0,1,27.77-6.86,58.24,58.24,0,0,1,44.16,19.93l6.81,7.79,6.7-7.79C237,114.21,268.4,108.51,291.74,121c18.14,9.62,29.41,28,29.41,47.77A54.9,54.9,0,0,1,318.07,186.32Z" transform="translate(-82.22 -91.55)"/><path class="cls-2" d="M255.12,208.68l-41.2-35.83a2,2,0,0,0-2.67,0l-41.19,35.83a3,3,0,0,0-.49,3.75,2,2,0,0,0,3.16.58l39.86-34.67L252.45,213a2,2,0,0,0,1.33.52,2.16,2.16,0,0,0,1.82-1.1A3,3,0,0,0,255.12,208.68Z" transform="translate(-82.22 -91.55)"/></svg>