<svg id="Layer_1" data-name="Layer 1" xmlns="http://www.w3.org/2000/svg" viewBox="0 0 73.78 62.45"><defs><style>.cls-1,.cls-2{fill:#38c964;stroke:#38c964;stroke-miterlimit:10;}.cls-1{stroke-width:3px;}.cls-2{stroke-width:5px;}</style></defs><path class="cls-1" d="M64.06,11a22,22,0,0,0-24.44,2.9A22.11,22.11,0,0,0,15.16,11,20.3,20.3,0,0,0,4.22,28.85a18.88,18.88,0,0,0,1,6.07C8.5,49.2,29.69,68,39.62,68S70.71,49.2,74,35.16a19.61,19.61,0,0,0,1-6.31A20.28,20.28,0,0,0,64.06,11Zm5.07,22.8C66.06,47.09,46.05,63,39.62,63,32.47,63,13,46.33,10,33.55a14.39,14.39,0,0,1-.78-4.7A15.28,15.28,0,0,1,17.5,15.42a16.63,16.63,0,0,1,7.81-1.93A16.37,16.37,0,0,1,37.73,19.1l1.91,2.19,1.89-2.19a16.91,16.91,0,0,1,20.2-3.68A15.29,15.29,0,0,1,70,28.85,15.7,15.7,0,0,1,69.13,33.79Z" transform="translate(-2.72 -7.05)"/><path class="cls-2" d="M51.43,40.08,39.84,30a.54.54,0,0,0-.75,0L27.51,40.08a.86.86,0,0,0-.14,1.05.58.58,0,0,0,.89.17l11.21-9.75L50.68,41.3a.54.54,0,0,0,.37.14.58.58,0,0,0,.51-.31A.85.85,0,0,0,51.43,40.08Z" transform="translate(-2.72 -7.05)"/></svg>